<?xml version="1.0" encoding="UTF-8"?>
<svg width="796px" height="796px" viewBox="0 0 796 796" version="1.1" xmlns="http://www.w3.org/2000/svg" xmlns:xlink="http://www.w3.org/1999/xlink">
    <!-- Generator: Sketch 52.6 (67491) - http://www.bohemiancoding.com/sketch -->
    <title>iOS Icon</title>
    <desc>Created with Sketch.</desc>
    <g id="iOS-Icon" stroke="none" stroke-width="1" fill="none" fill-rule="evenodd">
        <g id="CONCORDIUM_full_pos_CMYK" transform="translate(61.000000, 56.000000)" fill="#878787">
            <path d="M445.878352,666.410432 C445.878352,668.373733 444.54022,670.15673 442.634396,670.697639 C412.181762,679.352187 379.539457,684 346.309186,684 C156.335029,684 1.88218752,532.745745 0.0169129853,345.470939 C-1.66588904,179.491932 122.415417,32.0440752 288.12073,4.79827551 C341.625725,-3.99650835 394.340005,-0.410480304 442.370825,13.1723522 C444.317198,13.7132614 445.635055,15.4962586 445.635055,17.4795925 L445.574231,112.058578 C445.574231,115.103697 442.512748,117.087031 439.654012,115.925077 C409.404125,103.644434 376.619897,97.1134555 341.646,97.7545331 C214.705957,100.058406 106.884979,201.789414 99.3225074,327.039957 C90.7665742,468.718115 204.649695,586.275727 346.207812,586.275727 C379.133963,586.275727 411.269399,579.905018 440.100056,568.365621 C442.958792,567.203668 446,569.207035 446,572.252154 L445.878352,666.410432" id="Fill-1"></path>
            <path d="M202,334.989886 C202,253.267751 268.480418,187 350.48985,187 C432.519582,187 499,253.267751 499,334.989886 C499,416.732249 432.519582,483 350.48985,483 C268.480418,483 202,416.732249 202,334.989886" id="Fill-4"></path>
            <path d="M639.734419,483 C641.357128,483 642.866625,481.968359 643.545899,480.390556 C663.01841,435.969316 674,387.3406 674,334.989886 C674,282.335748 660.999457,234.131825 641.18731,189.54876 C640.508036,187.991184 639.017408,187 637.413567,187 L543.088876,187 C539.786851,187 537.956586,190.904052 539.881195,193.796692 C566.335129,233.868858 581.958422,282.133465 581.958422,334.989886 C581.958422,388.008132 566.353998,436.070457 539.786851,476.183079 C537.862242,479.075719 539.673639,483 542.994532,483 L639.734419,483" id="Fill-5"></path>
        </g>
    </g>
</svg>